<svg xmlns="http://www.w3.org/2000/svg" width="512" height="512" viewBox="0 0 512 512">
  <defs>
    <linearGradient id="glassGrad2" x1="0" y1="0" x2="0" y2="1">
      <stop offset="0" stop-color="#ffffff" stop-opacity="0.92"/>
      <stop offset="0.35" stop-color="#f2f6fb" stop-opacity="0.55"/>
      <stop offset="1" stop-color="#dbe6f3" stop-opacity="0.28"/>
    </linearGradient>
    <linearGradient id="slimeGrad2" x1="0" y1="0" x2="0" y2="1">
      <stop offset="0" stop-color="#c9f7a6"/>
      <stop offset="1" stop-color="#7fd766"/>
    </linearGradient>
    <filter id="shadow2" x="-20%" y="-20%" width="140%" height="140%">
      <feDropShadow dx="0" dy="10" stdDeviation="10" flood-color="#000" flood-opacity="0.25"/>
    </filter>
  </defs>

  <rect width="512" height="512" fill="none"/>

  <!-- Straw (slime extension) -->
  <g filter="url(#shadow2)">
    <path d="M285 64
             C338 64 378 98 378 140
             C378 170 354 194 320 194
             C295 194 274 182 258 166
             C240 148 228 124 228 104
             C228 80 250 64 285 64 Z"
          fill="url(#slimeGrad2)"
          stroke="#5fc85d"
          stroke-width="10"
          stroke-linejoin="round"/>
    <path d="M256 152
             C292 190 338 206 368 192"
          fill="none"
          stroke="#eaffdc"
          stroke-opacity="0.55"
          stroke-width="10"
          stroke-linecap="round"/>
  </g>

  <!-- Lid -->
  <g filter="url(#shadow2)">
    <path d="M132 148
             C132 120 156 98 186 98
             H326
             C356 98 380 120 380 148
             V168
             H132 Z"
          fill="url(#glassGrad2)"
          stroke="#b9c9db"
          stroke-width="12"
          stroke-linejoin="round"/>
    <path d="M170 122 H342"
          stroke="#ffffff"
          stroke-opacity="0.9"
          stroke-width="10"
          stroke-linecap="round"/>
  </g>

  <!-- Cup body -->
  <g filter="url(#shadow2)">
    <path d="M122 166
             C122 148 136 134 154 134
             H358
             C376 134 390 148 390 166
             V330
             C390 382 350 424 298 424
             H214
             C162 424 122 382 122 330
             Z"
          fill="url(#glassGrad2)"
          stroke="#b9c9db"
          stroke-width="12"
          stroke-linejoin="round"/>
  </g>

  <!-- Slime inside -->
  <path d="M150 270
           C162 220 202 198 256 198
           C310 198 350 220 362 270
           V330
           C362 362 336 388 304 388
           H208
           C176 388 150 362 150 330
           Z"
        fill="url(#slimeGrad2)"
        stroke="#5fc85d"
        stroke-width="6"
        stroke-linejoin="round"/>

  <!-- Bubbles -->
  <circle cx="206" cy="250" r="8" fill="#e8ffd9" opacity="0.7"/>
  <circle cx="238" cy="278" r="6" fill="#e8ffd9" opacity="0.55"/>
  <circle cx="312" cy="256" r="7" fill="#e8ffd9" opacity="0.6"/>
  <circle cx="292" cy="296" r="5" fill="#e8ffd9" opacity="0.5"/>
  <circle cx="264" cy="242" r="4" fill="#e8ffd9" opacity="0.45"/>

  <!-- Face -->
  <ellipse cx="210" cy="312" rx="22" ry="30" fill="#111"/>
  <ellipse cx="302" cy="312" rx="22" ry="30" fill="#111"/>
  <circle cx="202" cy="304" r="7" fill="#fff" opacity="0.95"/>
  <circle cx="294" cy="304" r="7" fill="#fff" opacity="0.95"/>
  <path d="M238 334
           C248 346 264 346 274 334"
        stroke="#111"
        stroke-width="8"
        stroke-linecap="round"
        fill="none"/>

  <!-- Feet -->
  <g filter="url(#shadow2)">
    <path d="M178 418
             C178 400 192 386 210 386
             H226
             C244 386 258 400 258 418
             V438
             C258 456 244 470 226 470
             H210
             C192 470 178 456 178 438
             Z"
          fill="#cfd9e6"
          stroke="#aab9cc"
          stroke-width="8"
          stroke-linejoin="round"/>

    <path d="M254 418
             C254 400 268 386 286 386
             H302
             C320 386 334 400 334 418
             V438
             C334 456 320 470 302 470
             H286
             C268 470 254 456 254 438
             Z"
          fill="#cfd9e6"
          stroke="#aab9cc"
          stroke-width="8"
          stroke-linejoin="round"/>
  </g>
</svg>
